Coordinates
version=1
nRows=5
nColumns=40
inDegrees=yes

Units are S.I. units (second, meters, Newtons, ...)
If the header above contains a line with 'inDegrees', this indicates whether rotational values are in degrees (yes) or radians (no).

endheader
time	pelvis_tilt	pelvis_list	pelvis_rotation	pelvis_tx	pelvis_ty	pelvis_tz	hip_flexion_r	hip_adduction_r	hip_rotation_r	knee_angle_r	knee_angle_r_beta	ankle_angle_r	subtalar_angle_r	mtp_angle_r	hip_flexion_l	hip_adduction_l	hip_rotation_l	knee_angle_l	knee_angle_l_beta	ankle_angle_l	subtalar_angle_l	mtp_angle_l	lumbar_extension	lumbar_bending	lumbar_rotation	arm_flex_r	arm_add_r	arm_rot_r	elbow_flex_r	pro_sup_r	wrist_flex_r	wrist_dev_r	arm_flex_l	arm_add_l	arm_rot_l	elbow_flex_l	pro_sup_l	wrist_flex_l	wrist_dev_l
      4.52000000	    -13.65718421	     -7.72893587	      2.42912755	     -2.87528724	      0.92649782	      0.25625004	     65.43272728	      2.33643836	     -3.32291593	     67.13179825	      1.17167091	     16.81196857	      0.00000000	      0.00000000	    -16.07448170	     -6.66935431	      6.97166771	     23.81750968	      0.41569396	    -16.72436640	      0.00000000	      0.00000000	    -21.72139325	     16.30559181	     -1.68442632	    -55.88061089	    -36.80294086	    -26.25016904	    102.49458176	     87.32710556	      0.00000000	      0.00000000	     26.74298523	    -23.20106205	     20.02487290	    127.70118214	      1.51990191	      0.00000000	      0.00000000
      4.52500000	    -13.24653390	     -7.71719835	      1.81873694	     -2.84544924	      0.92948355	      0.25606781	     63.67511437	      2.67442346	     -3.67026241	     62.64095328	      1.09329088	     16.08375871	      0.00000000	      0.00000000	    -16.77225961	     -6.18967123	      7.40609610	     25.72434490	      0.44897452	    -16.69764908	      0.00000000	      0.00000000	    -22.24169270	     16.42075330	     -0.98742985	    -55.13890570	    -36.90179932	    -26.00073233	    102.16039417	     87.31275881	      0.00000000	      0.00000000	     25.15266703	    -23.50397915	     19.84047192	    127.64787895	      1.51780305	      0.00000000	      0.00000000
      4.53000000	    -12.87391141	     -7.54673646	      1.20173639	     -2.81585096	      0.93224799	      0.25610813	     61.83649412	      2.98673895	     -3.82483682	     58.21662097	      1.01607172	     15.08963848	      0.00000000	      0.00000000	    -17.08913998	     -5.53696308	      7.60912496	     28.25212267	      0.49309256	    -16.31638660	      0.00000000	      0.00000000	    -22.73734677	     16.30596013	     -0.32704013	    -54.03183593	    -36.97552529	    -25.47413025	    101.71080967	     87.27521477	      0.00000000	      0.00000000	     23.47294197	    -23.85164256	     19.67685430	    127.40610901	      1.52141188	      0.00000000	      0.00000000
      4.53500000	    -12.49490570	     -7.41015627	      0.56597516	     -2.78627777	      0.93480919	      0.25635068	     59.86263509	      3.36143479	     -4.03301518	     53.90039653	      0.94073939	     13.92621404	      0.00000000	      0.00000000	    -17.15175755	     -4.94644696	      7.44800796	     31.25633233	      0.54552591	    -15.65931647	      0.00000000	      0.00000000	    -23.26145693	     16.18224113	      0.30977478	    -52.60483567	    -37.11076324	    -24.75346767	    101.22671974	     87.25243065	      0.00000000	      0.00000000	     21.57122310	    -24.17773211	     19.36269216	    127.04792746	      1.51723614	      0.00000000	      0.00000000
      4.54000000	    -12.09853158	     -7.22516013	     -0.09393815	     -2.75683751	      0.93715301	      0.25688339	     57.79783767	      3.75475937	     -4.19029020	     49.79798890	      0.86913887	     12.65683554	      0.00000000	      0.00000000	    -16.98738986	     -4.35828066	      6.97210502	     34.65489671	      0.60484205	    -14.88783802	      0.00000000	      0.00000000	    -23.82273606	     15.94173297	      0.93000128	    -50.85865905	    -37.24638661	    -23.81804045	    100.70078824	     87.22913016	      0.00000000	      0.00000000	     19.54535561	    -24.52575733	     18.95579413	    126.52788252	      1.51920332	      0.00000000	      0.00000000
